<?xml version="1.0" encoding="utf-8"?>
<!-- Generator: Adobe Illustrator 16.0.0, SVG Export Plug-In . SVG Version: 6.00 Build 0)  -->
<!DOCTYPE svg PUBLIC "-//W3C//DTD SVG 1.1//EN" "http://www.w3.org/Graphics/SVG/1.1/DTD/svg11.dtd">
<svg version="1.1" id="Layer_1" xmlns="http://www.w3.org/2000/svg" xmlns:xlink="http://www.w3.org/1999/xlink" x="0px" y="0px"
	 width="76.34px" height="76.536px" viewBox="0 0 76.34 76.536" enable-background="new 0 0 76.34 76.536" xml:space="preserve">
<g>
	<path fill="#1877bc" d="M31.242,57.875l31.559-18.222c0.496-0.285,0.801-0.813,0.801-1.384c0-0.573-0.305-1.102-0.801-1.386
		L31.242,18.661c-0.496-0.286-1.105-0.286-1.601,0c-0.493,0.285-0.797,0.812-0.797,1.382v8.485H1.602
		C0.719,28.528,0,29.246,0,30.129v16.274c0,0.886,0.719,1.601,1.602,1.601h27.242v8.485c0,0.57,0.304,1.101,0.797,1.386
		c0.25,0.142,0.527,0.215,0.8,0.215C30.719,58.09,30.996,58.021,31.242,57.875L31.242,57.875z M31.242,57.875"/>
	<path fill="#1877bc" d="M64.523,0H31.926c-0.883,0-1.602,0.719-1.602,1.602v4.797C30.324,7.282,31.043,8,31.926,8h32.598
		c2.105,0,3.816,1.711,3.816,3.817v52.901c0,2.103-1.711,3.817-3.816,3.817H31.926c-0.883,0-1.602,0.714-1.602,1.597v4.802
		c0,0.883,0.719,1.602,1.602,1.602h32.598c6.516,0,11.816-5.305,11.816-11.817V11.817C76.34,5.301,71.039,0,64.523,0L64.523,0z
		 M64.523,0"/>
</g>
</svg>
