<?xml version="1.0" encoding="utf-8"?>
<!-- Generator: Adobe Illustrator 16.0.0, SVG Export Plug-In . SVG Version: 6.00 Build 0)  -->
<!DOCTYPE svg PUBLIC "-//W3C//DTD SVG 1.1//EN" "http://www.w3.org/Graphics/SVG/1.1/DTD/svg11.dtd">
<svg version="1.1" id="Layer_1" xmlns="http://www.w3.org/2000/svg" xmlns:xlink="http://www.w3.org/1999/xlink" x="0px" y="0px"
	 width="97.441px" height="92.801px" viewBox="0 0 97.441 92.801" enable-background="new 0 0 97.441 92.801" xml:space="preserve">
<g>
	<path fill="#1877bc" d="M48.559,52.078c14.402,0,26.082-11.68,26.082-26.078c0-14.398-11.68-26-26.082-26
		C34.16,0,22.48,11.68,22.48,26C22.48,40.32,34.16,52.078,48.559,52.078L48.559,52.078z M48.559,6.801
		c10.562,0,19.203,8.64,19.203,19.199c0,10.559-8.641,19.199-19.203,19.199c-10.559,0-19.2-8.64-19.2-19.199
		C29.359,15.441,38,6.801,48.559,6.801L48.559,6.801z M48.559,6.801"/>
	<path fill="#1877bc" d="M3.441,92.801H94c1.922,0,3.441-1.521,3.441-3.442c0-18-14.641-32.718-32.723-32.718h-32
		C14.719,56.641,0,71.281,0,89.358C0,91.28,1.52,92.801,3.441,92.801L3.441,92.801z M32.719,63.52h32
		c13.121,0,23.922,9.762,25.602,22.402H7.121C8.801,73.358,19.602,63.52,32.719,63.52L32.719,63.52z M32.719,63.52"/>
</g>
</svg>
